<svg width="22" height="22" viewBox="0 0 22 22" fill="none" xmlns="http://www.w3.org/2000/svg">
<path d="M14.3908 3.39009C14.5165 3.51592 14.6735 3.60594 14.8456 3.65089C15.0177 3.69583 15.1987 3.69406 15.3698 3.64577C15.541 3.59747 15.6962 3.50439 15.8194 3.37613C15.9427 3.24787 16.0294 3.08906 16.0708 2.91609C16.1746 2.48399 16.3918 2.08736 16.6998 1.76707C17.0079 1.44677 17.3957 1.21437 17.8235 1.09381C18.2512 0.973251 18.7033 0.968883 19.1333 1.08116C19.5633 1.19343 19.9556 1.41829 20.2697 1.73258C20.5839 2.04687 20.8087 2.43922 20.9208 2.86924C21.0329 3.29926 21.0284 3.75139 20.9077 4.17908C20.787 4.60677 20.5545 4.99456 20.2341 5.3025C19.9137 5.61045 19.517 5.82743 19.0848 5.93109C18.9119 5.97249 18.7531 6.05927 18.6248 6.18249C18.4965 6.30571 18.4035 6.46091 18.3552 6.63208C18.3069 6.80326 18.3051 6.98422 18.35 7.15631C18.395 7.3284 18.485 7.48539 18.6108 7.61109L20.2938 9.29309C20.518 9.51725 20.6958 9.78337 20.8172 10.0763C20.9385 10.3691 21.0009 10.6831 21.0009 11.0001C21.0009 11.3171 20.9385 11.631 20.8172 11.9239C20.6958 12.2168 20.518 12.4829 20.2938 12.7071L18.6108 14.3901C18.4851 14.5159 18.3281 14.6059 18.1561 14.6509C17.984 14.6958 17.803 14.6941 17.6318 14.6458C17.4607 14.5975 17.3055 14.5044 17.1822 14.3761C17.059 14.2479 16.9722 14.0891 16.9308 13.9161C16.827 13.484 16.6099 13.0874 16.3019 12.7671C15.9938 12.4468 15.606 12.2144 15.1782 12.0938C14.7505 11.9733 14.2984 11.9689 13.8684 12.0812C13.4384 12.1934 13.0461 12.4183 12.7319 12.7326C12.4178 13.0469 12.193 13.4392 12.0809 13.8692C11.9688 14.2993 11.9733 14.7514 12.094 15.1791C12.2147 15.6068 12.4472 15.9946 12.7676 16.3025C13.088 16.6104 13.4847 16.8274 13.9168 16.9311C14.0898 16.9725 14.2486 17.0593 14.3769 17.1825C14.5051 17.3057 14.5982 17.4609 14.6465 17.6321C14.6948 17.8033 14.6966 17.9842 14.6516 18.1563C14.6067 18.3284 14.5167 18.4854 14.3908 18.6111L12.7078 20.2931C12.4837 20.5173 12.2176 20.6951 11.9247 20.8164C11.6318 20.9377 11.3179 21.0002 11.0008 21.0002C10.6838 21.0002 10.3699 20.9377 10.077 20.8164C9.78412 20.6951 9.518 20.5173 9.29384 20.2931L7.61084 18.6101C7.48514 18.4843 7.32815 18.3942 7.15606 18.3493C6.98397 18.3043 6.80301 18.3061 6.63183 18.3544C6.46066 18.4027 6.30546 18.4958 6.18224 18.624C6.05902 18.7523 5.97224 18.9111 5.93084 19.0841C5.82704 19.5162 5.60993 19.9128 5.30187 20.2331C4.99382 20.5534 4.60596 20.7858 4.17823 20.9064C3.7505 21.0269 3.29836 21.0313 2.86838 20.919C2.4384 20.8067 2.04612 20.5819 1.73194 20.2676C1.41776 19.9533 1.19303 19.561 1.08089 19.1309C0.968762 18.7009 0.973279 18.2488 1.09398 17.8211C1.21468 17.3934 1.44721 17.0056 1.76761 16.6977C2.08801 16.3897 2.4847 16.1728 2.91684 16.0691C3.08982 16.0277 3.24862 15.9409 3.37688 15.8177C3.50514 15.6945 3.59822 15.5393 3.64652 15.3681C3.69481 15.1969 3.69658 15.016 3.65164 14.8439C3.6067 14.6718 3.51667 14.5148 3.39084 14.3891L1.70784 12.7071C1.48367 12.4829 1.30584 12.2168 1.18452 11.9239C1.0632 11.631 1.00075 11.3171 1.00075 11.0001C1.00075 10.6831 1.0632 10.3691 1.18452 10.0763C1.30584 9.78337 1.48367 9.51725 1.70784 9.29309L3.39084 7.61009C3.51654 7.48426 3.67353 7.39423 3.84562 7.34929C4.01771 7.30435 4.19867 7.30612 4.36985 7.35441C4.54102 7.40271 4.69622 7.49579 4.81944 7.62405C4.94266 7.75231 5.02944 7.91111 5.07084 8.08409C5.17465 8.51619 5.39175 8.91281 5.69981 9.23311C6.00786 9.55341 6.39572 9.78581 6.82345 9.90637C7.25118 10.0269 7.70332 10.0313 8.1333 9.91902C8.56328 9.80674 8.95556 9.58188 9.26974 9.2676C9.58392 8.95331 9.80865 8.56095 9.92079 8.13094C10.0329 7.70092 10.0284 7.24879 9.9077 6.8211C9.787 6.39341 9.55447 6.00562 9.23407 5.69767C8.91367 5.38973 8.51698 5.17275 8.08484 5.06909C7.91186 5.02769 7.75306 4.94091 7.6248 4.81769C7.49654 4.69447 7.40346 4.53927 7.35516 4.36809C7.30687 4.19692 7.3051 4.01596 7.35004 3.84387C7.39498 3.67178 7.48501 3.51479 7.61084 3.38909L9.29384 1.70709C9.518 1.48291 9.78412 1.30509 10.077 1.18377C10.3699 1.06244 10.6838 1 11.0008 1C11.3179 1 11.6318 1.06244 11.9247 1.18377C12.2176 1.30509 12.4837 1.48291 12.7078 1.70709L14.3908 3.39009Z" stroke="url(#paint0_linear_38_11)" stroke-width="2" stroke-linecap="round" stroke-linejoin="round"/>
<defs>
<linearGradient id="paint0_linear_38_11" x1="11.0008" y1="1" x2="11.0008" y2="21.0002" gradientUnits="userSpaceOnUse">
<stop stop-color="#4169E1"/>
<stop offset="1" stop-color="#F83A89"/>
</linearGradient>
</defs>
</svg>
